# xmcd
#
# Track frame offsets: 
#        150
#        18853
#        31823
#        49468
#        71015
#        88940
#        94086
#        114667
#        146493
#        161664
#        169089
#        192156
#        221264
#        234758
#        253214
#
# Disc length: 3652 seconds
#
# Revision: 2
# Processed by: cddbd v1.5.2PL0 Copyright (c) Steve Scherf et al.
# Submitted via: ExactAudioCopy v0.99pb5
#
DISCID=cb0e420f
DTITLE=Up Dharma Down - Fragmented
DYEAR=2006
DGENRE=OPM
TTITLE0=Layag
TTITLE1=Maybe
TTITLE2=Lazy Daisy
TTITLE3=We Give In Sometimes
TTITLE4=Oo
TTITLE5=Fragmented
TTITLE6=June
TTITLE7=Sleeptalk
TTITLE8=Pag-agos
TTITLE9=Broken Mirrors And Screaming Turtles
TTITLE10=Malikmata
TTITLE11=The World Is Our Playground And We Will Always Be Home
TTITLE12=Oo (fragmented remix)
TTITLE13=Hiwaga
TTITLE14=Lazy Daisy (ascolto version)
EXTD=YEAR: 2006
EXTT0=
EXTT1=
EXTT2=
EXTT3=
EXTT4=
EXTT5=
EXTT6=
EXTT7=
EXTT8=
EXTT9=
EXTT10=
EXTT11=
EXTT12=
EXTT13=
EXTT14=
PLAYORDER=
